<?xml version="1.0" encoding="UTF-8"?><!DOCTYPE svg PUBLIC "-//W3C//DTD SVG 1.1//EN" "http://www.w3.org/Graphics/SVG/1.1/DTD/svg11.dtd">
<svg version="1.1" xmlns="http://www.w3.org/2000/svg" width="120" height="134" viewBox="0 0 120 134"><g fill="#44B351"><path d="M34.7 68h7c1.3 0 2.3-1.1 2.3-2.3V29.3c0-1.3-1.1-2.3-2.3-2.3h-7c-1.3 0-2.3 1.1-2.3 2.3v36.4c0 1.3 1 2.3 2.3 2.3zM50.3 64.2h7c1.3 0 2.3-1.1 2.3-2.3V17.8c0-1.3-1.1-2.3-2.3-2.3h-7c-1.3 0-2.3 1.1-2.3 2.3v44.1c-.1 1.2 1 2.3 2.3 2.3z"/><path d="M102.5 70.9l-5-5c-.9-.9-2.4-.9-3.3 0L64.7 95.5H28.5V44.8c0-1.3-1.1-2.3-2.3-2.3h-7c-1.3 0-2.3 1.1-2.3 2.3v72.6c0 1.2 1.4 1.7 2.2.9l11-11.1h38.1c.4 0 .8-.1 1.1-.3.5-.1.9-.3 1.3-.7l32-32c.8-.9.8-2.4-.1-3.3z"/><path d="M65.9 68.2h7c1.3 0 2.3-1.1 2.3-2.3V29.5c0-1.3-1.1-2.3-2.3-2.3h-7c-1.3 0-2.3 1.1-2.3 2.3v36.4c-.1 1.3 1 2.3 2.3 2.3z"/></g></svg>
