<?xml version="1.0" encoding="UTF-8"?><!DOCTYPE svg PUBLIC "-//W3C//DTD SVG 1.1//EN" "http://www.w3.org/Graphics/SVG/1.1/DTD/svg11.dtd">
<svg version="1.1" xmlns="http://www.w3.org/2000/svg" width="120" height="134" viewBox="0 0 120 134"><g fill="#135CFD"><path d="M81.987 78H38.013C36.34 78 35 79.433 35 81.224v9.552C35 92.567 36.34 94 38.013 94h43.974C83.66 94 85 92.567 85 90.776v-9.552C85 79.433 83.66 78 81.987 78zM100.04 54H20.067C18.363 54 17 55.433 17 57.224v9.552C17 68.567 18.363 70 20.067 70h79.86c1.704 0 3.067-1.433 3.067-3.224v-9.552c.113-1.791-1.363-3.224-2.954-3.224zM65.981 102H54.02c-1.677 0-3.019 1.433-3.019 3.224v9.552c0 1.791 1.342 3.224 3.019 3.224H65.98c1.677 0 3.019-1.433 3.019-3.224v-9.552c0-1.791-1.342-3.224-3.019-3.224zM67.549 46.104c7.789-4.17 10.724-13.863 6.555-21.653-4.17-7.789-13.863-10.724-21.653-6.555-7.789 4.17-10.724 13.863-6.555 21.653 4.17 7.789 13.863 10.724 21.653 6.555z"/></g></svg>
