<?xml version="1.0" encoding="UTF-8"?><!DOCTYPE svg PUBLIC "-//W3C//DTD SVG 1.1//EN" "http://www.w3.org/Graphics/SVG/1.1/DTD/svg11.dtd">
<svg version="1.1" xmlns="http://www.w3.org/2000/svg" width="120" height="134" viewBox="0 0 120 134"><g fill="#8255F4"><path d="M81.2 77.3H29V32.5c0-1.5-1.2-2.7-2.7-2.7h-8c-1.5 0-2.7 1.2-2.7 2.7V103c0 1.1 1.3 1.6 2 .8l13.1-13.2h50.5c1.5 0 2.7-1.2 2.7-2.7v-8c0-1.4-1.2-2.6-2.7-2.6z"/><path d="M101.8 29.8H38.3c-1.5 0-2.7 1.2-2.7 2.7v8c0 1.5 1.2 2.7 2.7 2.7h52.8v44.5c0 1.5 1.2 2.7 2.7 2.7h8c1.5 0 2.7-1.2 2.7-2.7V32.5c-.1-1.5-1.3-2.7-2.7-2.7zM49.3 65.5c1.2 0 2.2-1 2.2-2.2v-6.4c0-1.2-1-2.2-2.2-2.2h-6.7c-1.2 0-2.2 1-2.2 2.2v6.4c0 1.2 1 2.2 2.2 2.2h6.7z"/><path d="M64 65.5c1.2 0 2.2-1 2.2-2.2v-6.4c0-1.2-1-2.2-2.2-2.2h-6.7c-1.2 0-2.2 1-2.2 2.2v6.4c0 1.2 1 2.2 2.2 2.2H64zM78.5 65.5c1.2 0 2.2-1 2.2-2.2v-6.4c0-1.2-1-2.2-2.2-2.2h-6.7c-1.2 0-2.2 1-2.2 2.2v6.4c0 1.2 1 2.2 2.2 2.2h6.7z"/></g></svg>
