<?xml version="1.0" encoding="UTF-8"?><!DOCTYPE svg PUBLIC "-//W3C//DTD SVG 1.1//EN" "http://www.w3.org/Graphics/SVG/1.1/DTD/svg11.dtd">
<svg version="1.1" xmlns="http://www.w3.org/2000/svg" width="120" height="134" viewBox="0 0 120 134"><g fill="#44B351"><path d="M38.5 76.5h-6.7c-1.2 0-2.2 1-2.2 2.2v19.6c0 1.2 1 2.2 2.2 2.2h6.7c1.2 0 2.2-1 2.2-2.2V78.7c.1-1.2-.9-2.2-2.2-2.2z"/><path d="M95.6 102.5H89c-1.2 0-2.2 1-2.2 2.2v7.5H70.3V3c0-1.2-1-2.2-2.2-2.2H2.3C1 .8 0 1.8 0 3v95.3c0 1.2 1 2.2 2.2 2.2H9c1.2 0 2.2-1 2.2-2.2V12h48v109.2c0 1.2 1 2.2 2.2 2.2h25.3v7.5c0 1.2 1 2.2 2.2 2.2h6.7c1.2 0 2.2-1 2.2-2.2v-26.2c.1-1.2-.9-2.2-2.2-2.2z"/><path d="M38.5 45.5h-6.7c-1.2 0-2.2 1-2.2 2.2v19.6c0 1.2 1 2.2 2.2 2.2h6.7c1.2 0 2.2-1 2.2-2.2V47.7c.1-1.2-.9-2.2-2.2-2.2zM53.3 45.5h-6.7c-1.2 0-2.2 1-2.2 2.2v19.6c0 1.2 1 2.2 2.2 2.2h6.7c1.2 0 2.2-1 2.2-2.2V47.7c.1-1.2-.9-2.2-2.2-2.2zM23.8 45.5h-6.7c-1.2 0-2.2 1-2.2 2.2v19.6c0 1.2 1 2.2 2.2 2.2h6.7c1.2 0 2.2-1 2.2-2.2V47.7c0-1.2-1-2.2-2.2-2.2zM38.5 17.7h-6.7c-1.2 0-2.2 1-2.2 2.2v19.6c0 1.2 1 2.2 2.2 2.2h6.7c1.2 0 2.2-1 2.2-2.2V19.9c.1-1.2-.9-2.2-2.2-2.2zM53.3 17.7h-6.7c-1.2 0-2.2 1-2.2 2.2v19.6c0 1.2 1 2.2 2.2 2.2h6.7c1.2 0 2.2-1 2.2-2.2V19.9c.1-1.2-.9-2.2-2.2-2.2zM23.8 17.7h-6.7c-1.2 0-2.2 1-2.2 2.2v19.6c0 1.2 1 2.2 2.2 2.2h6.7c1.2 0 2.2-1 2.2-2.2V19.9c0-1.2-1-2.2-2.2-2.2zM118 104.7h-15.3c-1.1 0-1.9.9-1.9 1.9v5.8c0 1.1.9 1.9 1.9 1.9H118c1.1 0 1.9-.9 1.9-1.9v-5.8c.1-1-.8-1.9-1.9-1.9zM118 121.4h-15.3c-1.1 0-1.9.9-1.9 1.9v5.8c0 1.1.9 1.9 1.9 1.9H118c1.1 0 1.9-.9 1.9-1.9v-5.8c.1-1.1-.8-1.9-1.9-1.9z"/></g></svg>
