<?xml version="1.0" encoding="UTF-8"?><!DOCTYPE svg PUBLIC "-//W3C//DTD SVG 1.1//EN" "http://www.w3.org/Graphics/SVG/1.1/DTD/svg11.dtd">
<svg version="1.1" xmlns="http://www.w3.org/2000/svg" width="120" height="134" viewBox="0 0 120 134"><g fill="#1D1D1B"><path d="M102.4 55.4h-6V20.3c0-1.3-1-2.3-2.3-2.3H25.5c-1.3 0-2.3 1-2.3 2.3v35.1h-4.8c-1.3 0-2.3 1-2.3 2.3V85c0 1.3 1 2.3 2.3 2.3h14.1c1.3 0 2.3-1 2.3-2.3V29.6h50v74.6H57.7c-1.3 0-2.3 1-2.3 2.3v7c0 1.3 1 2.3 2.3 2.3h36.4c1.3 0 2.3-1 2.3-2.3V87.4h6c1.3 0 2.3-1 2.3-2.3V57.8c0-1.3-1-2.4-2.3-2.4z"/><path d="M55.4 57c0-1.3-1-2.3-2.3-2.3h-7c-1.3 0-2.3 1-2.3 2.3v6.6c0 1.3 1 2.3 2.3 2.3h7c1.3 0 2.3-1 2.3-2.3V57zM74.9 65.9c1.3 0 2.3-1 2.3-2.3V57c0-1.3-1-2.3-2.3-2.3h-7c-1.3 0-2.3 1-2.3 2.3v6.6c0 1.3 1 2.3 2.3 2.3h7z"/></g></svg>
