<?xml version="1.0" encoding="UTF-8"?><!DOCTYPE svg PUBLIC "-//W3C//DTD SVG 1.1//EN" "http://www.w3.org/Graphics/SVG/1.1/DTD/svg11.dtd">
<svg version="1.1" xmlns="http://www.w3.org/2000/svg" width="120" height="134" viewBox="0 0 120 134"><g fill="#1D1D1B"><path d="M97 57.6h7.8c1.4 0 2.6-1.2 2.6-2.6V24.2c0-1.4-1.2-2.6-2.6-2.6H74.2c-1.4 0-2.6 1.2-2.6 2.6V32c0 1.4 1.2 2.6 2.6 2.6h20.2V55c0 1.5 1.2 2.6 2.6 2.6z"/><path d="M85.3 38.3c-1-1-2.7-1-3.7 0L70.9 49H47h-.1c-.7 0-1.4.2-1.9.8L14.3 80.4c-1 1-1 2.7 0 3.7l5.5 5.5c1 1 2.7 1 3.7 0L51.1 62h24.1c.9 0 1.7-.5 2.2-1.2l13.4-13.4c1-1 1-2.7 0-3.7l-5.5-5.4z"/><path d="M64.2 71.8h-7.7c-1.4 0-2.6 1.1-2.6 2.6v35.2c0 1.4 1.1 2.6 2.6 2.6h7.7c1.4 0 2.6-1.1 2.6-2.6V74.3c0-1.4-1.2-2.5-2.6-2.5zM84.5 71.9h-7.7c-1.4 0-2.6 1.1-2.6 2.6v35.2c0 1.4 1.1 2.6 2.6 2.6h7.7c1.4 0 2.6-1.1 2.6-2.6V74.5c-.1-1.5-1.2-2.6-2.6-2.6zM104.7 65.9H97c-1.4 0-2.6 1.1-2.6 2.6v41c0 1.4 1.1 2.6 2.6 2.6h7.7c1.4 0 2.6-1.1 2.6-2.6v-41c-.1-1.5-1.2-2.6-2.6-2.6zM44 89.1h-7.7c-1.4 0-2.6 1.1-2.6 2.6v17.8c0 1.4 1.1 2.6 2.6 2.6H44c1.4 0 2.6-1.1 2.6-2.6V91.7c0-1.5-1.2-2.6-2.6-2.6zM23.8 97.8h-7.7c-1.4 0-2.6 1.1-2.6 2.6v9.1c0 1.4 1.1 2.6 2.6 2.6h7.7c1.4 0 2.6-1.1 2.6-2.6v-9.1c0-1.5-1.2-2.6-2.6-2.6z"/></g></svg>
